<svg xmlns="http://www.w3.org/2000/svg" viewBox="0 0 256 256">
  <defs>
    <linearGradient id="bgExplorer" x1="0" x2="1" y1="0" y2="1">
      <stop offset="0" stop-color="#1f3d77" />
      <stop offset="1" stop-color="#111c33" />
    </linearGradient>
    <linearGradient id="coatExplorer" x1="0" x2="0" y1="0" y2="1">
      <stop offset="0" stop-color="#4aa3ff" />
      <stop offset="1" stop-color="#1c4bb8" />
    </linearGradient>
  </defs>
  <rect width="256" height="256" rx="42" fill="url(#bgExplorer)" />
  <circle cx="128" cy="86" r="54" fill="#f4d9c6" />
  <path d="M128 44c20 0 36 16 36 36s-16 32-36 32-36-12-36-32 16-36 36-36z" fill="#f9e7dc" />
  <path d="M70 204c6-44 30-72 58-72s52 28 58 72l-116 0z" fill="url(#coatExplorer)" />
  <path d="M128 140c-24 0-42 16-50 48 14 10 30 16 50 16s36-6 50-16c-8-32-26-48-50-48z" fill="#0f254b" opacity=".45" />
  <path d="M88 68c8-18 24-28 40-28s32 10 40 28c-10-8-24-12-40-12s-30 4-40 12z" fill="#1d355e" />
  <rect x="102" y="82" width="52" height="28" rx="14" fill="#fff" opacity=".85" />
  <circle cx="118" cy="96" r="6" fill="#1c2c45" />
  <circle cx="138" cy="96" r="6" fill="#1c2c45" />
  <path d="M124 112c4 4 8 4 12 0" stroke="#1c2c45" stroke-width="4" stroke-linecap="round" fill="none" />
  <path d="M128 188l-22 40h44l-22-40z" fill="#f4d9c6" opacity=".85" />
</svg>
