<svg width="240" height="240" viewBox="0 0 240 240" fill="none" xmlns="http://www.w3.org/2000/svg">
  <circle cx="120" cy="120" r="112" stroke="#1C2A45" stroke-width="8" stroke-opacity="0.08"/>
  <path d="M88 88C88 66.3563 105.356 49 127 49H133C154.644 49 172 66.3563 172 88V98C172 116.673 156.673 132 138 132H122C103.327 132 88 116.673 88 98V88Z" fill="#F6CAB3"/>
  <path d="M60 120C48.9543 120 40 128.954 40 140V146.6C40 157.043 48.3145 166.075 58.7112 166.887C86.5223 169.062 153.478 169.069 181.289 166.886C191.685 166.075 200 157.043 200 146.6V140C200 128.954 191.046 120 180 120H60Z" fill="#2B426C"/>
  <path d="M76 182C76 156.833 96.8335 136 122 136H128C153.167 136 174 156.833 174 182V196H76V182Z" fill="#3A5A94"/>
  <path d="M98 94C98 90.6863 95.3137 88 92 88C88.6863 88 86 90.6863 86 94V96C86 99.3137 88.6863 102 92 102H98V94Z" fill="#D68B69"/>
  <path d="M142 94C142 90.6863 144.686 88 148 88C151.314 88 154 90.6863 154 94V96C154 99.3137 151.314 102 148 102H142V94Z" fill="#D68B69"/>
  <path d="M108 92H132" stroke="#2C3A58" stroke-width="6" stroke-linecap="round"/>
  <path d="M114 116C119 122 129 122 134 116" stroke="#C77956" stroke-width="5" stroke-linecap="round"/>
  <path d="M72 84C72 60 96 40 120 40C144 40 168 60 168 84H72Z" fill="#52355C"/>
  <path d="M96 144L120 120L144 144" stroke="#F6B1C2" stroke-width="12" stroke-linecap="round" stroke-linejoin="round"/>
  <circle cx="120" cy="66" r="18" fill="#4E2F55"/>
</svg>
