<svg width="240" height="240" viewBox="0 0 240 240" fill="none" xmlns="http://www.w3.org/2000/svg">
  <circle cx="120" cy="120" r="112" stroke="#1D2A44" stroke-width="8" stroke-opacity="0.12"/>
  <path d="M66 190C66 158.281 91.2812 133 123 133H117C148.719 133 174 158.281 174 190V204H66V190Z" fill="#1F6AA5"/>
  <path d="M78 116C78 94.804 95.804 77 117 77H123C144.196 77 162 94.804 162 116V134C162 155.196 144.196 173 123 173H117C95.804 173 78 155.196 78 134V116Z" fill="#F5C6A2"/>
  <path d="M80 118C80 90 100 66 120 66C140 66 160 90 160 118V126C160 137.046 151.046 146 140 146H100C88.9543 146 80 137.046 80 126V118Z" fill="#1E2F4D"/>
  <path d="M72 114C72 86 96 60 124 60H116C144 60 168 86 168 114V118C168 122.418 164.418 126 160 126H80C75.5817 126 72 122.418 72 118V114Z" fill="#2B3E64"/>
  <path d="M85 182L95 156H145L155 182V204H85V182Z" fill="#2483C2"/>
  <ellipse cx="98" cy="124" rx="9" ry="10" fill="#212D45"/>
  <ellipse cx="142" cy="124" rx="9" ry="10" fill="#212D45"/>
  <circle cx="98" cy="121" r="4" fill="white"/>
  <circle cx="142" cy="121" r="4" fill="white"/>
  <path d="M110 150C115 156 125 156 130 150" stroke="#CB7A58" stroke-width="5" stroke-linecap="round"/>
  <path d="M100 110C108 106 132 106 140 110" stroke="#243759" stroke-width="6" stroke-linecap="round"/>
  <path d="M120 64C96 64 76 88 76 118H164C164 88 144 64 120 64Z" fill="#1F2F4D"/>
  <path d="M86 82C94 70 108 62 120 62C132 62 146 70 154 82" stroke="#15223B" stroke-width="9" stroke-linecap="round"/>
  <path d="M132 96L150 110" stroke="#F9CC4B" stroke-width="6" stroke-linecap="round"/>
  <circle cx="154" cy="114" r="6" fill="#F9CC4B"/>
</svg>
