<svg xmlns="http://www.w3.org/2000/svg" viewBox="0 0 256 256">
  <defs>
    <linearGradient id="bgVisionary" x1="0" x2="1" y1="0" y2="1">
      <stop offset="0" stop-color="#5d2ca8" />
      <stop offset="1" stop-color="#1c1036" />
    </linearGradient>
    <linearGradient id="robeVisionary" x1="0" x2="0" y1="0" y2="1">
      <stop offset="0" stop-color="#f06fcb" />
      <stop offset="1" stop-color="#8d2ce2" />
    </linearGradient>
  </defs>
  <rect width="256" height="256" rx="42" fill="url(#bgVisionary)" />
  <circle cx="128" cy="84" r="54" fill="#f5dcc6" />
  <path d="M86 56c12-18 30-28 42-28s30 10 42 28c-12-6-26-10-42-10s-30 4-42 10z" fill="#2f1f53" />
  <path d="M70 204c8-48 30-74 58-74s50 26 58 74H70z" fill="url(#robeVisionary)" />
  <path d="M128 144c-22 0-38 16-46 46 12 10 28 16 46 16s34-6 46-16c-8-30-24-46-46-46z" fill="#32125c" opacity=".45" />
  <rect x="90" y="92" width="76" height="26" rx="13" fill="#ffffff" opacity=".9" />
  <circle cx="112" cy="104" r="6" fill="#2a1a4b" />
  <circle cx="144" cy="104" r="6" fill="#2a1a4b" />
  <path d="M120 120c6 6 10 6 16 0" stroke="#2a1a4b" stroke-width="4" stroke-linecap="round" fill="none" />
  <path d="M154 58l18 26" stroke="#f5dcc6" stroke-width="6" stroke-linecap="round" opacity=".6" />
  <path d="M102 58l-18 26" stroke="#f5dcc6" stroke-width="6" stroke-linecap="round" opacity=".6" />
  <path d="M128 190l-20 38h40l-20-38z" fill="#f5dcc6" opacity=".85" />
</svg>
