<svg xmlns="http://www.w3.org/2000/svg" width="320" height="320" viewBox="0 0 320 320" fill="none">
  <defs>
    <linearGradient id="analyst_face" x1="160" y1="86" x2="160" y2="208" gradientUnits="userSpaceOnUse">
      <stop stop-color="#F9DCC2"/>
      <stop offset="1" stop-color="#E9B790"/>
    </linearGradient>
    <linearGradient id="analyst_suit" x1="160" y1="210" x2="160" y2="304" gradientUnits="userSpaceOnUse">
      <stop stop-color="#1F3A6D"/>
      <stop offset="1" stop-color="#122544"/>
    </linearGradient>
    <radialGradient id="analyst_shadow" cx="0" cy="0" r="1" gradientUnits="userSpaceOnUse" gradientTransform="translate(160 256) scale(110 48)">
      <stop stop-color="#000" stop-opacity="0.28"/>
      <stop offset="1" stop-opacity="0"/>
    </radialGradient>
  </defs>
  <ellipse cx="160" cy="256" rx="110" ry="48" fill="url(#analyst_shadow)" opacity="0.35"/>
  <path d="M220 248c-6-38-28-62-60-62s-54 24-60 62c18 20 46 32 60 32s42-12 60-32z" fill="url(#analyst_suit)"/>
  <path d="M160 222c-12 0-22 4-22 10s10 12 22 12 22-6 22-12-10-10-22-10z" fill="#182B4C"/>
  <path d="M160 96c-44 0-70 30-70 74 0 46 32 72 70 72s70-26 70-72c0-44-26-74-70-74z" fill="url(#analyst_face)"/>
  <path d="M200 140c-6-4-14-6-24-6s-18 2-24 6" stroke="#D89D7A" stroke-width="4" stroke-linecap="round" opacity="0.6"/>
  <path d="M126 136c6-4 14-6 24-6s18 2 24 6" stroke="#D89D7A" stroke-width="4" stroke-linecap="round" opacity="0.6"/>
  <ellipse cx="136" cy="160" rx="9" ry="12" fill="#2C2C2C"/>
  <ellipse cx="184" cy="160" rx="9" ry="12" fill="#2C2C2C"/>
  <circle cx="136" cy="158" r="3" fill="#FFF" opacity="0.55"/>
  <circle cx="184" cy="158" r="3" fill="#FFF" opacity="0.55"/>
  <path d="M148 188c4 4 8 6 12 6s8-2 12-6" stroke="#A56252" stroke-width="4" stroke-linecap="round"/>
  <path d="M104 142c0-44 28-76 76-76 30 0 58 16 68 40-6 4-14 6-22 6-14-28-46-32-66-20-20-12-42-8-56 14z" fill="#2C364C"/>
  <path d="M232 136c-10 44-36 68-72 68s-62-24-72-68c2-46 32-70 72-70s70 24 72 70z" fill="#2F3E5C" opacity="0.45"/>
  <path d="M112 244c12 4 30 6 48 6s36-2 48-6c-14 18-34 28-48 28s-34-10-48-28z" fill="#1A2D52" opacity="0.75"/>
  <path d="M160 236l-18 32h36l-18-32z" fill="#F4F6FF" opacity="0.85"/>
  <path d="M160 236l-8 14h16l-8-14z" fill="#D4D8EA"/>
</svg>
