<svg width="240" height="240" viewBox="0 0 240 240" fill="none" xmlns="http://www.w3.org/2000/svg">
  <circle cx="120" cy="120" r="112" stroke="#1C2A45" stroke-width="8" stroke-opacity="0.08"/>
  <path d="M80 86C80 66 96 48 120 48C144 48 160 66 160 86V98C160 116.777 144.777 132 126 132H114C95.2223 132 80 116.777 80 98V86Z" fill="#F4C9AD"/>
  <path d="M68 180C68 155.147 88.1472 135 113 135H127C151.853 135 172 155.147 172 180V196H68V180Z" fill="#1E2F55"/>
  <path d="M64 116C52.9543 116 44 124.954 44 136V143.8C44 155.012 52.6913 164.59 63.8816 165.248C87.4033 166.628 152.597 166.636 176.119 165.247C187.309 164.59 196 155.012 196 143.8V136C196 124.954 187.046 116 176 116H64Z" fill="#213B6F"/>
  <path d="M92 92C92 88.6863 89.3137 86 86 86C82.6863 86 80 88.6863 80 92V94C80 97.3137 82.6863 100 86 100H92V92Z" fill="#2C3F66"/>
  <path d="M148 92C148 88.6863 150.686 86 154 86C157.314 86 160 88.6863 160 92V94C160 97.3137 157.314 100 154 100H148V92Z" fill="#2C3F66"/>
  <path d="M104 88H136" stroke="#2C3F66" stroke-width="6" stroke-linecap="round"/>
  <path d="M112 110C116 116 124 116 128 110" stroke="#C57A54" stroke-width="5" stroke-linecap="round"/>
  <path d="M120 42C94 42 74 61 74 86H166C166 61 146 42 120 42Z" fill="#403964"/>
  <path d="M102 148H138L132 168H108L102 148Z" fill="#F2923D"/>
  <path d="M100 168H140V188H100V168Z" fill="#F8B04D"/>
  <circle cx="94" cy="168" r="6" fill="#F2923D"/>
  <circle cx="146" cy="168" r="6" fill="#F2923D"/>
</svg>
