<svg xmlns="http://www.w3.org/2000/svg" viewBox="0 0 256 256">
  <defs>
    <linearGradient id="bgStrategist" x1="0" x2="1" y1="0" y2="1">
      <stop offset="0" stop-color="#1d5245" />
      <stop offset="1" stop-color="#0d1f1a" />
    </linearGradient>
    <linearGradient id="suitStrategist" x1="0" x2="0" y1="0" y2="1">
      <stop offset="0" stop-color="#51d1a6" />
      <stop offset="1" stop-color="#1f8060" />
    </linearGradient>
  </defs>
  <rect width="256" height="256" rx="42" fill="url(#bgStrategist)" />
  <circle cx="128" cy="82" r="54" fill="#f0d6c0" />
  <path d="M128 40c22 0 40 18 40 40s-18 32-40 32-40-12-40-32 18-40 40-40z" fill="#f6e8dc" />
  <path d="M74 206c6-50 28-76 54-76s48 26 54 76H74z" fill="url(#suitStrategist)" />
  <path d="M128 142c-22 0-36 14-44 44 12 10 26 18 44 18s32-8 44-18c-8-30-22-44-44-44z" fill="#0b3024" opacity=".5" />
  <path d="M98 64c10-16 20-24 30-24s20 8 30 24c-8-6-18-10-30-10s-22 4-30 10z" fill="#173c30" />
  <rect x="98" y="92" width="60" height="26" rx="13" fill="#fff" opacity=".9" />
  <circle cx="116" cy="104" r="6" fill="#123328" />
  <circle cx="140" cy="104" r="6" fill="#123328" />
  <path d="M120 118c6 6 10 6 16 0" stroke="#123328" stroke-width="4" stroke-linecap="round" fill="none" />
  <path d="M128 186l-24 42h48l-24-42z" fill="#f0d6c0" opacity=".85" />
  <path d="M102 156l26 18 26-18" fill="none" stroke="#0b3024" stroke-width="6" stroke-linecap="round" stroke-linejoin="round" opacity=".55" />
</svg>
