<svg width="240" height="240" viewBox="0 0 240 240" fill="none" xmlns="http://www.w3.org/2000/svg">
  <circle cx="120" cy="120" r="112" stroke="#1C2A45" stroke-width="8" stroke-opacity="0.08"/>
  <path d="M120 54C103.431 54 90 67.4315 90 84V96C90 112.569 103.431 126 120 126C136.569 126 150 112.569 150 96V84C150 67.4315 136.569 54 120 54Z" fill="#F5C7A6"/>
  <path d="M88 86C88 64 102 48 120 48C138 48 152 64 152 86H88Z" fill="#2E3E63"/>
  <path d="M80 102C69.5066 102 60 111.507 60 122V135.2C60 145.335 68.2027 153.8 78.3327 154.175C100.688 154.992 139.585 155.002 161.967 154.176C172.098 153.802 180.3 145.336 180.3 135.2V122C180.3 111.507 170.793 102 160.3 102H80Z" fill="#1F2F54"/>
  <path d="M70 170C70 152.327 84.3269 138 102 138H138C155.673 138 170 152.327 170 170V196H70V170Z" fill="#1F3A68"/>
  <path d="M92 97C96.4183 97 100 93.4183 100 89H92C87.5817 89 84 92.5817 84 97H92Z" fill="#E8B68B"/>
  <path d="M148 97C152.418 97 156 93.4183 156 89H148C143.582 89 140 92.5817 140 97H148Z" fill="#E8B68B"/>
  <rect x="99" y="100" width="42" height="10" rx="5" fill="#D58A64"/>
  <path d="M90 90H110" stroke="#2F3E5F" stroke-width="6" stroke-linecap="round"/>
  <path d="M130 90H150" stroke="#2F3E5F" stroke-width="6" stroke-linecap="round"/>
  <circle cx="100" cy="92" r="8" stroke="#2F3E5F" stroke-width="4"/>
  <circle cx="140" cy="92" r="8" stroke="#2F3E5F" stroke-width="4"/>
  <path d="M108 114C113 118 127 118 132 114" stroke="#C97952" stroke-width="5" stroke-linecap="round"/>
  <path d="M120 42C92 42 74 65 74 84H166C166 65 148 42 120 42Z" fill="#32466F"/>
</svg>
